<?xml version="1.0" encoding="UTF-8"?>
<svg xmlns="http://www.w3.org/2000/svg" viewBox="0 0 48 48" width="48" height="48">
  <!-- Simple, clean betweendeals logo -->
  <g fill="#000000" stroke="none">
    <!-- Central hub circle -->
    <circle cx="24" cy="24" r="6" fill="#000000"/>
    
    <!-- Connected nodes around the center -->
    <!-- Top node -->
    <circle cx="24" cy="8" r="3" fill="#000000"/>
    <line x1="24" y1="11" x2="24" y2="18" stroke="#000000" stroke-width="2"/>
    
    <!-- Top right node -->
    <circle cx="36" cy="12" r="3" fill="#000000"/>
    <line x1="33.5" y1="14.5" x2="28.2" y2="19.8" stroke="#000000" stroke-width="2"/>
    
    <!-- Right node -->
    <circle cx="40" cy="24" r="3" fill="#000000"/>
    <line x1="37" y1="24" x2="30" y2="24" stroke="#000000" stroke-width="2"/>
    
    <!-- Bottom right node -->
    <circle cx="36" cy="36" r="3" fill="#000000"/>
    <line x1="33.5" y1="33.5" x2="28.2" y2="28.2" stroke="#000000" stroke-width="2"/>
    
    <!-- Bottom node -->
    <circle cx="24" cy="40" r="3" fill="#000000"/>
    <line x1="24" y1="37" x2="24" y2="30" stroke="#000000" stroke-width="2"/>
    
    <!-- Bottom left node -->
    <circle cx="12" cy="36" r="3" fill="#000000"/>
    <line x1="14.5" y1="33.5" x2="19.8" y2="28.2" stroke="#000000" stroke-width="2"/>
    
    <!-- Left node -->
    <circle cx="8" cy="24" r="3" fill="#000000"/>
    <line x1="11" y1="24" x2="18" y2="24" stroke="#000000" stroke-width="2"/>
    
    <!-- Top left node -->
    <circle cx="12" cy="12" r="3" fill="#000000"/>
    <line x1="14.5" y1="14.5" x2="19.8" y2="19.8" stroke="#000000" stroke-width="2"/>
  </g>
</svg>