<svg width="48" height="48" viewBox="0 0 48 48" fill="none" xmlns="http://www.w3.org/2000/svg">
<g clip-path="url(#clip0_775_21237)">
<path d="M32.0737 30.021C32.0737 30.021 31.9895 22.0947 31.9895 18.842C31.9895 14.4631 36.2 11.2105 36.2 11.2105C33.1684 11.6736 30.3684 13.1052 28.2105 15.2841C27.9474 15.5473 27.6947 15.821 27.4632 16.1052C26.621 15.5263 25.5895 15.2947 24.5789 15.442C25.6105 16.1157 26.2632 17.242 26.3368 18.4736V29.7683C26.3368 29.7683 24.4105 31.442 22.9368 31.442C22.2632 31.442 21.6316 31.1262 21.2316 30.5894C21.1158 30.442 21.021 30.2736 20.9474 30.0947V16.0736C20.5053 16.3999 19.0316 16.7263 19.0316 14.2947C19.2105 12.3999 20.3684 10.7263 22.0842 9.88416C19.4 10.2842 16.8947 11.4315 14.8316 13.1999C11.6842 15.8841 9.8842 19.8315 9.91578 23.9789C9.91578 23.9789 11.3474 19.5578 13.1368 19.1473C13.6632 19.0105 14.221 19.1262 14.6526 19.4631C15.0842 19.7999 15.3263 20.3157 15.3053 20.8631V31.2525C15.3158 31.3578 15.3158 31.4631 15.3053 31.5683C15.2105 32.1894 14.621 32.621 13.9895 32.5262C13.5579 32.4946 13.1368 32.421 12.7263 32.2947C15.3895 35.8525 19.5579 37.9789 24.0105 38.0315L27.8737 34.1789L30.1684 36.7262C34.1158 34.9473 37.021 31.4525 38.0632 27.2526C35.9789 29.3683 33.6737 31.5157 32.0737 30.021Z" fill="#D1D1D1"/>
<path d="M23.9474 6.95491e-05C10.7158 0.0316485 0 10.7685 0 24C0 37.2526 10.7474 48 24 48C37.2526 48 48 37.2526 48 24C48 23.979 48 23.9685 48 23.9474C47.9684 10.6948 37.2 -0.0315094 23.9474 6.95491e-05ZM23.9474 46.3474C11.6211 46.3158 1.65263 36.3263 1.65263 24C1.65263 23.979 1.65263 23.9685 1.65263 23.9474C1.68421 11.6106 11.7158 1.62112 24.0526 1.6527C36.3895 1.68428 46.3789 11.7053 46.3474 24.0527C46.3158 36.3895 36.2947 46.3789 23.9474 46.3474Z" fill="#D1D1D1"/>
</g>
<defs>
<clipPath id="clip0_775_21237">
<rect width="48" height="48" fill="white"/>
</clipPath>
</defs>
</svg>
