<svg width="48" height="38" viewBox="0 0 48 38" fill="none" xmlns="http://www.w3.org/2000/svg">
<g clip-path="url(#clip0_775_21235)">
<path d="M41.6393 13.3452C40.7039 9.94585 38.8047 6.885 36.1544 4.54353L36.0694 4.62816V4.52942C28.572 -2.08595 17.1062 -1.36658 10.4592 6.10921C8.61676 8.18269 7.28452 10.6652 6.54753 13.3311C6.6184 13.3029 6.70343 13.3029 6.7743 13.2747C3.24528 15.6444 0.920947 19.6644 0.949292 24.2204C0.977638 28.2545 2.86261 32.0347 6.06566 34.489H6.07983L6.06566 34.5313C8.34747 36.2522 11.1253 37.169 13.9882 37.1549H24.0367L24.0934 37.2113H34.1844C41.4267 37.2678 47.3509 31.4705 47.4076 24.2486C47.4359 19.876 45.2817 15.7713 41.6393 13.3311V13.3452ZM34.1844 29.1854H24.0792V29.129H13.9882C13.2796 29.129 12.571 28.9739 11.919 28.6777C9.38209 27.5351 8.24826 24.5589 9.39626 22.0341C10.5443 19.5092 13.5347 18.3808 16.0716 19.5233C17.1913 20.0311 18.0842 20.9198 18.5944 22.0341L24.4477 16.2086C22.4919 13.6555 19.6573 11.9629 16.5535 11.3564C16.596 11.3282 16.6385 11.3 16.6669 11.3C20.2668 7.37869 26.3044 6.91322 30.457 10.2562H30.5562C32.8947 12.2027 34.2411 15.0943 34.1844 18.141V19.1425C36.9765 19.1425 39.2299 21.3852 39.2299 24.164C39.2299 26.9427 36.9765 29.1854 34.1844 29.1854Z" fill="#D1D1D1"/>
</g>
<defs>
<clipPath id="clip0_775_21235">
<rect width="48" height="38" fill="white"/>
</clipPath>
</defs>
</svg>
