<svg width="42" height="48" viewBox="0 0 42 48" fill="none" xmlns="http://www.w3.org/2000/svg">
<path d="M22.8274 8.60009L30.3381 13.0006C30.6347 13.2003 30.6347 13.6009 30.3381 13.7001L21.4436 18.9006C21.147 19.1003 20.8504 19.0011 20.6531 18.9006L11.7587 13.7001C11.462 13.5996 11.462 13.0998 11.7587 13.0006L19.2693 8.60009V0L0 11.1997V33.6004L7.31209 29.3003V20.5006C7.31209 20.2004 7.708 20.0008 7.90531 20.0999L16.7997 25.3005C17.0964 25.5001 17.1957 25.7011 17.1957 25.9999V36.3997C17.1957 36.6998 16.7997 36.8995 16.6024 36.8003L9.09175 32.3998L1.77837 36.6998L1.91249 36.7794L1.87767 36.8003L9.88099 41.4762L20.9497 48L20.9987 47.9713L21.0477 48V47.9426L40.1198 36.8003L32.8077 32.5003L25.297 36.9008C25.0004 37.1005 24.7038 36.9008 24.7038 36.5002V26.1004C24.7038 25.8003 24.9011 25.5001 25.0997 25.4009L33.9941 20.2004C34.2907 20.0008 34.5873 20.2004 34.5873 20.6011V29.4008L41.9007 33.7009V33.5443L42 33.6004V11.1997L22.8274 0V8.60009Z" fill="#D1D1D1"/>
</svg>
