<svg width="48" height="30" viewBox="0 0 48 30" fill="none" xmlns="http://www.w3.org/2000/svg">
<path d="M18.9218 14.4355C19.0176 14.742 19.1293 14.9677 19.2571 15.0645C19.3849 15.1774 19.5764 15.2259 19.8637 15.2259H21.2366C21.5239 15.2259 21.7475 15.1776 21.8751 15.0645C22.0029 14.9517 22.0985 14.742 22.1785 14.4194L24.6369 4.03241L27.1114 14.4355C27.1753 14.758 27.287 14.9677 27.4148 15.0806C27.5426 15.1934 27.7501 15.2419 28.0533 15.2419H29.4262C29.6976 15.2419 29.9052 15.1774 30.0328 15.0806C30.1605 14.9837 30.2723 14.774 30.3681 14.4515L34.2155 1.98382C34.2794 1.80641 34.3113 1.6773 34.3272 1.58069C34.3431 1.48386 34.3591 1.40327 34.3591 1.32269C34.3591 1.04845 34.2155 0.919556 33.9601 0.919556H32.4755C32.1882 0.919556 31.9807 0.984108 31.8529 1.08094C31.7412 1.17777 31.6295 1.38746 31.5336 1.71001L28.7718 12.5164L26.2495 1.71001C26.1856 1.40349 26.0739 1.17777 25.9461 1.08094C25.8183 0.968077 25.6107 0.919556 25.3076 0.919556H24.0303C23.743 0.919556 23.5194 0.984108 23.3918 1.08094C23.2642 1.17777 23.1684 1.38746 23.0884 1.71001L20.598 12.3873L17.916 1.71001C17.8201 1.40349 17.7245 1.17777 17.5967 1.08094C17.485 0.968077 17.2775 0.919556 16.9741 0.919556H15.4095C15.1541 0.919556 15.0264 1.06469 15.0264 1.32269C15.0264 1.43555 15.0742 1.64524 15.17 1.96779L18.9216 14.4355H18.9218Z" fill="#D1D1D1"/>
<path d="M36.0843 14.726C36.4994 14.9679 37.1221 15.1776 37.9201 15.3711C38.7184 15.5645 39.5486 15.6613 40.3785 15.6613C41.1927 15.6613 41.9431 15.5485 42.6614 15.3226C43.3479 15.1129 43.9386 14.8226 44.4335 14.4192C44.9283 14.0321 45.3115 13.5482 45.5988 12.9999C45.8702 12.4515 46.0139 11.8226 46.0139 11.129C46.0139 10.2902 45.7744 9.53226 45.2795 8.87091C44.7847 8.20957 43.9545 7.69357 42.805 7.3225L40.5381 6.5966C39.692 6.32236 39.1013 6.01605 38.782 5.70954C38.4628 5.40302 38.303 5.01591 38.303 4.56447C38.303 3.90313 38.5584 3.43544 39.0533 3.12892C39.5481 2.8224 40.2666 2.67727 41.1766 2.67727C42.31 2.67727 43.3318 2.88696 44.2418 3.30633C44.5132 3.43544 44.7208 3.49978 44.8484 3.49978C45.0879 3.49978 45.2154 3.32237 45.2154 2.98357V2.22561C45.2154 1.99989 45.1676 1.82248 45.0718 1.69337C44.9759 1.54823 44.8164 1.41913 44.5928 1.29024C44.4331 1.19341 44.2096 1.09679 43.9223 0.999963C43.635 0.903134 43.3316 0.82255 43.0124 0.741966C42.677 0.677413 42.3419 0.61286 41.9746 0.564553C41.6234 0.516245 41.2561 0.5 40.9049 0.5C40.2025 0.5 39.5321 0.580584 38.8933 0.774242C38.2548 0.967687 37.7119 1.24193 37.2331 1.613C36.7541 1.96783 36.371 2.41948 36.0837 2.93548C35.7964 3.45169 35.6527 4.04848 35.6527 4.72585C35.6527 5.56461 35.9242 6.35485 36.451 7.0645C36.9778 7.7904 37.8399 8.33867 39.0052 8.70974L41.32 9.43564C42.1022 9.69364 42.6451 9.96788 42.9324 10.2744C43.2197 10.5809 43.3634 10.9518 43.3634 11.4034C43.3634 12.0648 43.076 12.5808 42.5332 12.9356C41.9903 13.2904 41.2081 13.4678 40.2023 13.4678C39.5638 13.4678 38.9411 13.4033 38.3026 13.2744C37.68 13.1453 37.0893 12.9518 36.5466 12.7099C36.3869 12.6453 36.2432 12.5808 36.1476 12.5485C36.0517 12.5162 35.9561 12.5002 35.8603 12.5002C35.6208 12.5002 35.4932 12.6616 35.4932 13.0001V13.8227C35.4932 13.9678 35.5251 14.1292 35.589 14.2743C35.6529 14.4195 35.8285 14.5808 36.0839 14.726H36.0843Z" fill="#D1D1D1"/>
<path d="M9.04087 6.88753C8.45017 6.80694 7.89141 6.75842 7.34874 6.75842C5.70442 6.75842 4.41131 7.1778 3.43746 8.01656C2.4636 8.85532 1.98461 9.9681 1.98461 11.3391C1.98461 12.6295 2.38363 13.6617 3.16601 14.4359C3.94819 15.2101 5.01788 15.5972 6.35881 15.5972C8.24262 15.5972 9.80717 14.8553 11.0523 13.3714C11.2279 13.7423 11.3876 14.0488 11.5471 14.3231C11.7069 14.5811 11.8983 14.8393 12.1217 15.081C12.2815 15.2262 12.441 15.3067 12.6007 15.3067C12.7285 15.3067 12.8722 15.2584 13.0158 15.1616L14.0216 14.4842C14.2292 14.3229 14.325 14.1617 14.325 14.0003C14.325 13.8874 14.2931 13.7583 14.2133 13.6292C13.9899 13.2099 13.8302 12.8227 13.7024 12.4679C13.5907 12.1131 13.5268 11.6292 13.5268 11.0324H13.4948V5.80659C13.4948 4.03246 13.0478 2.70977 12.1698 1.83895C11.2757 0.968125 9.88693 0.532715 7.98704 0.532715C7.10903 0.532715 6.27883 0.629544 5.49666 0.839234C4.71449 1.03268 4.04381 1.27464 3.48506 1.56513C3.26164 1.67799 3.11799 1.79085 3.03801 1.90393C2.95804 2.017 2.92631 2.21045 2.92631 2.46844V3.25868C2.92631 3.59747 3.03801 3.75864 3.26164 3.75864C3.32554 3.75864 3.4053 3.74261 3.51701 3.71033C3.62872 3.67806 3.8204 3.61351 4.07576 3.50065C4.63452 3.27492 5.20914 3.09751 5.79984 2.95216C6.39054 2.80702 6.96516 2.74247 7.52392 2.74247C8.75313 2.74247 9.61528 2.98444 10.126 3.4844C10.6209 3.98436 10.8762 4.83915 10.8762 6.06501V7.24235C10.2377 7.09722 9.63094 6.96811 9.04045 6.88753H9.04087ZM10.9086 9.04876V9.72614C10.9086 10.2746 10.8447 10.7423 10.7489 11.1294C10.653 11.5165 10.4616 11.8553 10.206 12.1616C9.77501 12.6455 9.26407 13.0004 8.68945 13.1938C8.11483 13.3873 7.57194 13.4841 7.04514 13.4841C6.31078 13.4841 5.75203 13.2906 5.36887 12.8873C4.96985 12.5002 4.77817 11.9357 4.77817 11.1777C4.77817 10.3712 5.03354 9.75841 5.56034 9.323C6.08715 8.88759 6.86932 8.6779 7.93902 8.6779C8.43388 8.6779 8.92874 8.71018 9.43968 8.77473C9.95062 8.83929 10.4455 8.93612 10.9084 9.04898L10.9086 9.04876Z" fill="#D1D1D1"/>
<path d="M42.6297 22.2742C36.739 24.7903 30.3371 26.0161 24.5103 26.0161C15.8736 26.0161 7.52424 23.6129 0.755502 19.6453C0.1648 19.2905 -0.282245 19.9033 0.212615 20.3549C6.47062 26.0647 14.7561 29.5001 23.9515 29.5001C30.5129 29.5001 38.1438 27.4194 43.396 23.5001C44.2582 22.855 43.5077 21.8711 42.6297 22.2742Z" fill="#D1D1D1"/>
<path d="M47.8178 19.2422C47.2432 18.5325 42.3103 17.9197 39.3089 20.0487C38.846 20.3875 38.9258 20.8389 39.4367 20.7746C41.1449 20.5649 44.9126 20.1132 45.583 20.9843C46.2535 21.8391 44.8328 25.4358 44.1941 27.0326C44.0026 27.5165 44.4175 27.7099 44.8487 27.3391C47.6583 24.9519 48.3927 19.9681 47.818 19.2424L47.8178 19.2422Z" fill="#D1D1D1"/>
</svg>
