<svg width="48" height="36" viewBox="0 0 48 36" fill="none" xmlns="http://www.w3.org/2000/svg">
<g clip-path="url(#clip0_775_21232)">
<path d="M37.46 18.6202C31.828 9.12785 27.8706 2.47271 27.8539 2.48892C27.8206 2.54566 21.9969 18.1419 21.9969 18.1743C21.9969 18.1905 24.538 21.1412 27.6373 24.7322L33.2777 31.2576L33.1777 31.2819C33.1194 31.2901 28.1872 32.1412 22.2136 33.1707L11.3577 35.0351H29.2786H47.1994L47.1245 34.9135C47.0828 34.8487 42.7338 27.5126 37.4684 18.6283L37.46 18.6202Z" fill="#D1D1D1"/>
<path d="M18.7227 15.8641C22.7551 7.44182 26.1127 0.421903 26.1876 0.267886C26.2626 0.113869 26.3126 -0.00772315 26.2959 0.000382997C26.2876 0.000382997 23.18 2.53761 19.3892 5.62605L12.5075 11.2436L6.60051 21.198C3.35126 26.6696 0.693542 31.1604 0.693542 31.1685C0.693542 31.1766 3.09299 31.1847 6.02564 31.1766H11.3577L18.6977 15.856L18.7227 15.8641Z" fill="#D1D1D1"/>
</g>
<defs>
<clipPath id="clip0_775_21232">
<rect width="48" height="36" fill="white"/>
</clipPath>
</defs>
</svg>
