<svg id="Layer_1" data-name="Layer 1" xmlns="http://www.w3.org/2000/svg" viewBox="0 0 800 800"><defs><style>.cls-1{fill:#00043c;}</style></defs><path class="cls-1" d="M551.53,308.62l-14.37-56.34L520,256.66l-12.65,3.22A168.64,168.64,0,0,0,247.9,451c-25.79,54-31.49,98.65-10.66,115.41,18.08,14.55,52.36,5.08,92-21.66,8.36-5.64,17-12.07,25.73-19.21,25.52-20.83,52.14-47.67,77.32-79,29.26-36.36,52.27-73.37,67.4-106.49l32.5-8.27c1.75,3.43,3.34,7,4.81,10.57A140.37,140.37,0,0,1,372.62,531.32a1,1,0,0,0-.93.22c-2.35,2-4.72,4-7.07,5.89-5.86,4.8-11.72,9.34-17.56,13.55a1.08,1.08,0,0,0,.25,1.88A168.55,168.55,0,0,0,551.53,308.62Zm-94,58.39a523.7,523.7,0,0,1-44.48,64.18,526.36,526.36,0,0,1-53.16,57.14,376.17,376.17,0,0,1-29.44,24.6q-10.43,7.86-20.46,14c-1.56,1-3.13,1.9-4.66,2.75-12.37,7.17-23.53,11.86-32.53,13.64-7.29,1.41-12.56.89-15.66-1.63s-4.75-7.53-4.93-15c-.21-10.29,2.57-24.08,8.06-39.82.61-1.75,1.25-3.53,1.93-5.3a170.26,170.26,0,0,0,10.72,15.81,167.75,167.75,0,0,0,14.86,17q2.16,2.16,4.39,4.23a1.07,1.07,0,0,0,1.24.16c1.35-.73,2.76-1.53,4.23-2.37s2.85-1.62,4.2-2.45q7.31-4.53,14.57-9.76a1.08,1.08,0,0,0,.07-1.69c-3-2.56-5.93-5.24-8.76-8.07a138.49,138.49,0,0,1-22.12-28.67,142.75,142.75,0,0,1-8.51-17.28c-.06-.15-.13-.27-.19-.43a139.9,139.9,0,0,1-9-34,142.29,142.29,0,0,1-1.26-18.84c0-3.13.09-6.25.31-9.35A140.19,140.19,0,0,1,381.62,257.22,141.39,141.39,0,0,1,406.93,255c1.53,0,3,0,4.56.06A139.64,139.64,0,0,1,450,261.66c4.2,1.37,8.34,2.89,12.43,4.69l0,0,15.46,60.72A369.57,369.57,0,0,1,457.54,367Zm52.2-51.56-11.89,3-7.38-29-.77-3,1.44-.37,3.1-.79,25-6.37,2.45-.62,3.76,14.83.59,2.3,2.93,11.45.87,3.41-2.18.55-7.17,1.84Z"/></svg>