<svg width="414" height="73" viewBox="0 0 414 73" fill="none" xmlns="http://www.w3.org/2000/svg">
<path d="M51.6464 72.6316L61.9735 54.4655L30.9921 0H10.3271L0 18.1552H20.6758L51.6464 72.6316ZM72.3114 36.3103L82.6492 18.1552L72.3114 0H51.6571L41.33 18.1552H61.9842L72.3114 36.3103Z" fill="#03D9AF"/>
<path d="M61.9842 18.1552L72.3114 0H51.6571L41.33 18.1552H61.9842Z" fill="#03D9AF"/>
<path d="M20.6758 18.1552L30.9921 0H10.3271L0 18.1552H20.6758Z" fill="#03D9AF"/>
<path d="M139.223 63.065C136.557 63.065 134.574 62.0689 133.21 60.0767L109.097 24.9645L119.201 19.5483L138.789 47.6878C138.913 47.8746 139.037 47.9991 139.223 47.9991C139.347 47.9991 139.533 47.9368 139.657 47.6878L159.182 19.5483L169.286 24.9645L145.173 60.0767C143.81 62.0689 141.826 63.065 139.223 63.065Z" fill="#F7F7F7"/>
<path d="M216.898 63.1895L211.381 55.4698H179.954L174.437 63.1895L164.333 57.7732L189.686 22.6611C191.112 20.6689 193.095 19.6728 195.699 19.6728C198.178 19.6728 200.162 20.6689 201.649 22.6611L227.002 57.7732L216.898 63.1895ZM186.834 45.9447H204.563L196.132 34.1783C195.947 33.9916 195.823 33.8671 195.699 33.8671C195.575 33.8671 195.389 33.9916 195.265 34.1783L186.834 45.9447Z" fill="#F7F7F7"/>
<path d="M279.611 62.9404C277.442 62.9404 275.458 62.1934 273.661 60.637L245.581 36.7308C245.333 36.6063 245.147 36.5441 245.023 36.6063C244.899 36.7308 244.837 36.8553 244.837 37.1044V62.2556H233.245V28.4508C233.245 25.338 233.803 23.1591 234.919 21.914C236.035 20.6689 237.584 20.0463 239.506 20.0463C241.613 20.0463 243.597 20.8556 245.457 22.3498L273.537 46.1937C273.723 46.3804 273.909 46.4427 274.033 46.3182C274.157 46.2559 274.281 46.0692 274.281 45.8201V20.6066H285.872V54.5359C285.872 57.711 285.252 59.8899 284.136 61.135C283.021 62.3801 281.471 62.9404 279.611 62.9404Z" fill="#F7F7F7"/>
<path d="M345.894 63.1895L340.377 55.4698H308.95L303.433 63.1895L293.329 57.7732L318.682 22.6611C320.107 20.6689 322.091 19.6728 324.694 19.6728C327.174 19.6728 329.157 20.6689 330.645 22.6611L355.998 57.7732L345.894 63.1895ZM315.83 45.9447H333.558L325.128 34.1783C324.942 33.9916 324.818 33.8671 324.694 33.8671C324.57 33.8671 324.384 33.9916 324.26 34.1783L315.83 45.9447Z" fill="#F7F7F7"/>
<path d="M414 57.8977L404.082 64.1233L391.437 49.929H374.018V62.3179H362.241V30.0072C362.241 27.0189 362.985 24.6532 364.596 23.0346C366.208 21.4159 368.502 20.6066 371.539 20.6066H397.016C402.966 20.6066 407.243 21.7895 409.847 24.1552C412.45 26.5209 413.814 30.2562 413.814 35.2367C413.814 42.5829 410.839 47.1275 404.95 48.9952L414 57.8977ZM374.018 32.7465V39.2833H397.759C399.247 39.2833 400.363 39.0965 401.045 38.6607C401.665 38.225 402.037 37.2289 402.037 35.7347C402.037 34.2406 401.665 33.3068 400.983 32.8087C400.301 32.3729 399.247 32.1239 397.759 32.1239H374.638C374.204 32.1239 374.018 32.3729 374.018 32.7465Z" fill="#F7F7F7"/>
</svg>
